<svg width="61" height="48" viewBox="0 0 61 48" fill="none" xmlns="http://www.w3.org/2000/svg">
<path fill-rule="evenodd" clip-rule="evenodd" d="M59.5976 43.861C59.5882 43.8895 59.5765 43.918 59.5623 43.9441L59.5628 43.9437C59.5487 43.9722 59.5346 43.9983 59.5064 44.0173C59.4954 44.0347 59.4844 44.05 59.4734 44.0653C59.4679 44.0729 59.4625 44.0806 59.457 44.0885C59.4382 44.1122 59.417 44.1383 59.3958 44.1621C59.377 44.181 59.3582 44.2 59.337 44.219C59.3135 44.2427 59.2876 44.2641 59.2618 44.2831C59.251 44.2904 59.2389 44.2983 59.2266 44.3061C59.2148 44.3137 59.2027 44.3212 59.1912 44.3282C59.1842 44.3317 59.1773 44.3354 59.1704 44.3392C59.1656 44.3419 59.1608 44.3445 59.156 44.3472C59.1402 44.3561 59.1242 44.3651 59.1066 44.3733C59.0971 44.3781 59.0873 44.3823 59.0773 44.3863C59.0665 44.3907 59.0555 44.3947 59.0444 44.3987C59.0354 44.402 59.0263 44.4053 59.0172 44.4089C59.0109 44.4113 59.0049 44.4139 58.9989 44.4165C58.9932 44.419 58.9875 44.4215 58.9815 44.4238C58.975 44.4263 58.9682 44.4286 58.9608 44.4302C58.956 44.4314 58.9519 44.4314 58.9478 44.4314H58.9465C58.9428 44.4314 58.9391 44.4315 58.9349 44.4326C58.862 44.4516 58.7867 44.4635 58.7091 44.4635C58.6033 44.4635 58.5657 44.4801 58.5657 44.4801C58.5224 44.5306 58.4438 44.7837 58.3941 44.9441L58.3893 44.9595C58.2058 45.5528 57.8225 46.7869 56.2728 46.7869C54.9471 46.7869 54.2886 45.8987 53.8068 45.2488L53.8034 45.2442C53.3519 44.6295 53.1802 44.4634 52.8415 44.4634C52.5029 44.4634 52.3335 44.6295 51.8797 45.2418L51.8763 45.2463C51.3945 45.8962 50.7359 46.7844 49.408 46.7844C48.0823 46.7844 47.4238 45.8962 46.942 45.2464L46.9386 45.2418C46.4871 44.6295 46.3154 44.4634 45.9768 44.4634C45.6405 44.4634 45.4688 44.6296 45.0149 45.2442C44.5351 45.8945 43.8743 46.7869 42.5456 46.7869C41.2176 46.7869 40.5591 45.8987 40.0773 45.2488L40.0739 45.2442C39.6223 44.632 39.4506 44.4658 39.112 44.4658C38.7733 44.4658 38.604 44.6319 38.1501 45.2442C37.6704 45.8945 37.0118 46.7869 35.6808 46.7869C34.3551 46.7869 33.6967 45.8987 33.2149 45.2488L33.2115 45.2442C32.7599 44.632 32.5882 44.4658 32.2496 44.4658C31.9133 44.4658 31.7416 44.632 31.2877 45.2467C30.8079 45.8969 30.1471 46.7893 28.8184 46.7893C27.4927 46.7893 26.8342 45.9011 26.3524 45.2512L26.349 45.2467C25.8975 44.6344 25.7258 44.4683 25.3872 44.4683C25.0509 44.4683 24.8792 44.6344 24.4253 45.2491C23.9455 45.8993 23.2846 46.7917 21.9559 46.7917C21.5349 46.7917 21.1516 46.6185 20.8812 46.3052C20.225 45.5506 20.3567 44.2643 20.6272 42.228L20.6318 42.1927C20.7284 41.456 20.8757 40.3325 20.8271 39.7859C19.0704 40.1322 16.5775 43.6853 15.2841 46.2697C15.1242 46.5925 14.7973 46.7918 14.4446 46.7918C14.4257 46.7918 14.4069 46.7918 14.3881 46.7895C14.0142 46.7681 13.6873 46.5237 13.5603 46.1677C13.3439 45.5644 11.4955 40.194 13.4168 37.2227C14.1365 36.112 15.3029 35.4736 16.7939 35.3763C18.0897 35.2909 18.6824 34.9396 18.7952 34.662C18.8705 34.4768 18.7506 34.1612 18.4872 33.8598C17.7863 33.0553 16.2201 32.4098 14.4375 32.8987C11.9657 33.573 9.19539 36.9169 8.26174 40.3533C7.93483 41.5613 7.58204 43.7969 8.91785 45.1805C9.28001 45.5578 9.27061 46.1582 8.89903 46.5237C8.5251 46.8892 7.9325 46.8821 7.56798 46.5047C6.09344 44.9789 5.69599 42.6151 6.4462 39.8527C7.41729 36.2738 10.4888 32.0091 13.9458 31.0669C16.5209 30.3644 18.7903 31.3327 19.9004 32.6071C20.6694 33.4876 20.8999 34.501 20.5353 35.3886C20.2179 36.1599 19.3336 37.1139 16.916 37.2729C16.0153 37.3323 15.3874 37.6574 14.9947 38.2626C14.2022 39.4872 14.3856 41.6587 14.7454 43.3912C16.1565 41.1057 18.6329 37.7855 21.1963 37.8662C21.6102 37.8804 21.9841 38.0608 22.2475 38.3765C22.5109 38.6897 22.6402 39.0955 22.6873 39.5987C24.4181 38.4429 26.9442 37.299 31.9298 36.7911C26.5253 14.6963 36.685 2.25809 37.146 1.70987C37.1499 1.70591 37.1538 1.70278 37.1576 1.69978C37.1628 1.69559 37.1677 1.69167 37.1718 1.68614C37.2 1.65529 37.2283 1.62918 37.2588 1.60308C37.2776 1.58409 37.2965 1.56748 37.3176 1.55324C37.3465 1.5338 37.3754 1.51754 37.4056 1.50056L37.4258 1.48916C37.4446 1.47729 37.4634 1.46543 37.4846 1.45593C37.5293 1.43695 37.574 1.42271 37.621 1.41084C37.632 1.40926 37.6429 1.40557 37.6539 1.40188L37.654 1.40186C37.6594 1.40002 37.6649 1.39818 37.6704 1.3966C37.7339 1.38236 37.7997 1.37524 37.8679 1.37524L38.0067 1.37999C38.2842 1.37999 38.5452 1.50103 38.7239 1.71462C39.1849 2.2602 49.2949 14.6348 43.9871 36.6227C57.8667 37.4437 59.5647 43.0328 59.6305 43.2772C59.6329 43.2867 59.6329 43.2986 59.6352 43.3081L59.6494 43.4006C59.6541 43.4338 59.6588 43.4671 59.6588 43.5003C59.6588 43.5026 59.6589 43.5049 59.6591 43.5072L59.6599 43.5145C59.6603 43.5171 59.6606 43.5197 59.6608 43.5222C59.661 43.5244 59.6611 43.5266 59.6611 43.5288C59.6611 43.5351 59.6608 43.5412 59.6604 43.5472C59.6597 43.5573 59.6584 43.5672 59.6571 43.5777L59.6564 43.5834L59.6562 43.5868C59.6539 43.619 59.6515 43.6533 59.6446 43.6854C59.6435 43.6926 59.6421 43.6998 59.6407 43.707C59.6394 43.7131 59.6381 43.7191 59.6368 43.7252C59.6334 43.7404 59.6296 43.7556 59.6258 43.7709L59.621 43.7873L59.6177 43.799C59.6117 43.8203 59.6058 43.8412 59.5976 43.861ZM38.8081 39.5465H41.2398C46.5949 21.8734 41.5573 9.95943 38.8081 5.22952V39.5465ZM36.9268 5.47862V39.5465H34.6338C29.3824 22.2173 34.1564 10.3791 36.9268 5.47862ZM56.599 44.4199L56.6039 44.4044L56.6031 44.4045C56.7136 44.0485 56.9017 43.4647 57.365 43.0541C56.3235 41.7251 53.0382 38.9959 43.5018 38.4999C43.2949 39.2522 43.0715 40.014 42.8269 40.7877C42.7022 41.1816 42.3401 41.4498 41.9309 41.4498H33.94C33.5308 41.4498 33.1686 41.1816 33.044 40.7877C32.8182 40.0662 32.6112 39.3566 32.416 38.6565C26.3696 39.2308 24.2061 40.7615 22.5528 42.0526C22.5455 42.1082 22.5385 42.1634 22.5314 42.2191C22.5204 42.3061 22.5093 42.3943 22.4964 42.4869C22.4047 43.1799 22.2635 44.2478 22.2918 44.8174C22.4635 44.7154 22.6375 44.5065 22.9197 44.1221L22.9231 44.1175C23.4049 43.4677 24.0634 42.5794 25.3914 42.5794C26.717 42.5794 27.3755 43.4676 27.8573 44.1175L27.8607 44.1221C28.3123 44.7343 28.4839 44.9005 28.8226 44.9005C29.1612 44.9005 29.3306 44.7343 29.7845 44.1221L29.7878 44.1175C30.2696 43.4677 30.9282 42.5794 32.2561 42.5794C33.5818 42.5794 34.2403 43.4676 34.7221 44.1175L34.7255 44.1221C35.1794 44.7343 35.3511 44.9005 35.6874 44.9005C36.026 44.9005 36.1954 44.7343 36.6492 44.1221C37.129 43.4718 37.7875 42.5794 39.1186 42.5794C40.4442 42.5794 41.1027 43.4676 41.5845 44.1175L41.5879 44.1221C42.0418 44.7368 42.2135 44.9029 42.5521 44.9029C42.8908 44.9029 43.0601 44.7368 43.514 44.1245L43.5174 44.12C43.9992 43.4701 44.6577 42.5819 45.9857 42.5819C47.3113 42.5819 47.9698 43.47 48.4516 44.1199L48.455 44.1245C48.9066 44.7368 49.0783 44.9029 49.4169 44.9029C49.7555 44.9029 49.9272 44.7367 50.3811 44.1221C50.8609 43.4718 51.5218 42.5794 52.8505 42.5794C54.1785 42.5794 54.8369 43.4676 55.3187 44.1175L55.3221 44.1221C55.776 44.7343 55.9477 44.9005 56.284 44.9005C56.3898 44.9005 56.4275 44.8838 56.4275 44.8838C56.4707 44.8333 56.5493 44.5803 56.599 44.4199Z" fill="white"/>
<path d="M59.5623 43.9441L59.1225 43.7064L59.8802 44.3301L59.5623 43.9441ZM59.5976 43.861L59.1355 43.6702L59.1285 43.687L59.1228 43.7042L59.5976 43.861ZM59.5628 43.9437L60.0108 44.1657L59.2449 43.5578L59.5628 43.9437ZM59.5064 44.0173L59.2273 43.6024L59.1397 43.6614L59.0834 43.7506L59.5064 44.0173ZM59.4734 44.0653L59.8796 44.3568L59.8797 44.3567L59.4734 44.0653ZM59.457 44.0885L59.8488 44.3991L59.8587 44.3866L59.8678 44.3735L59.457 44.0885ZM59.3958 44.1621L59.751 44.514L59.7602 44.5047L59.769 44.4949L59.3958 44.1621ZM59.337 44.219L59.0031 43.8468L58.9922 43.8566L58.9819 43.8671L59.337 44.219ZM59.2618 44.2831L59.5408 44.698L59.5494 44.6922L59.5576 44.6862L59.2618 44.2831ZM59.2266 44.3061L58.9573 43.8848L58.9573 43.8849L59.2266 44.3061ZM59.1912 44.3282L59.4165 44.7746L59.4337 44.7659L59.4502 44.7559L59.1912 44.3282ZM59.1704 44.3392L58.9295 43.9011L58.9293 43.9012L59.1704 44.3392ZM59.156 44.3472L58.9117 43.911L58.9117 43.911L59.156 44.3472ZM59.1066 44.3733L58.8954 43.9201L58.8883 43.9234L58.8813 43.9269L59.1066 44.3733ZM59.0773 44.3863L58.8912 43.9223L58.8911 43.9223L59.0773 44.3863ZM59.0444 44.3987L58.873 43.929L58.873 43.929L59.0444 44.3987ZM59.0172 44.4089L59.194 44.8766L59.1981 44.875L59.0172 44.4089ZM58.9989 44.4165L59.1997 44.8744L59.1999 44.8743L58.9989 44.4165ZM58.9815 44.4238L59.1608 44.8906L59.161 44.8905L58.9815 44.4238ZM58.9608 44.4302L58.8514 43.9422L58.8383 43.9455L58.9608 44.4302ZM58.9465 44.4314V43.9314L58.945 43.9314L58.9465 44.4314ZM58.9349 44.4326L58.8128 43.9477L58.8089 43.9487L58.9349 44.4326ZM58.5657 44.4801L58.3637 44.0227L58.2597 44.0686L58.1858 44.155L58.5657 44.4801ZM58.3941 44.9441L58.8716 45.0924L58.8716 45.0923L58.3941 44.9441ZM58.3893 44.9595L57.9118 44.8111L57.9116 44.8118L58.3893 44.9595ZM53.8068 45.2488L53.405 45.5464L53.4052 45.5466L53.8068 45.2488ZM53.8034 45.2442L53.4005 45.5402L53.4016 45.5418L53.8034 45.2442ZM51.8797 45.2418L52.2813 45.5396L52.2813 45.5396L51.8797 45.2418ZM51.8763 45.2463L51.4747 44.9485L51.4746 44.9485L51.8763 45.2463ZM46.942 45.2464L47.3437 44.9486L47.3436 44.9485L46.942 45.2464ZM46.9386 45.2418L46.5362 45.5386L46.5371 45.5397L46.9386 45.2418ZM45.0149 45.2442L44.6127 44.9472L44.6125 44.9474L45.0149 45.2442ZM40.0773 45.2488L40.4789 44.951L40.4789 44.951L40.0773 45.2488ZM40.0739 45.2442L39.6715 45.541L39.6722 45.542L40.0739 45.2442ZM38.1501 45.2442L37.7484 44.9465L37.7478 44.9474L38.1501 45.2442ZM33.2149 45.2488L33.6165 44.951L33.6165 44.951L33.2149 45.2488ZM33.2115 45.2442L32.8091 45.541L32.8099 45.5421L33.2115 45.2442ZM31.2877 45.2467L30.8855 44.9496L30.8854 44.9498L31.2877 45.2467ZM26.3524 45.2512L26.7541 44.9535L26.754 44.9534L26.3524 45.2512ZM26.349 45.2467L25.9466 45.5434L25.9474 45.5445L26.349 45.2467ZM24.4253 45.2491L24.0231 44.9521L24.0229 44.9522L24.4253 45.2491ZM20.8812 46.3052L21.2597 45.9785L21.2585 45.9771L20.8812 46.3052ZM20.6272 42.228L21.1228 42.2938L21.123 42.293L20.6272 42.228ZM20.6318 42.1927L20.1361 42.1277L20.1361 42.1278L20.6318 42.1927ZM20.8271 39.7859L21.3251 39.7416L21.2759 39.1878L20.7304 39.2954L20.8271 39.7859ZM15.2841 46.2697L14.837 46.046L14.8361 46.0478L15.2841 46.2697ZM14.3881 46.7895L14.4507 46.2934L14.4337 46.2913L14.4166 46.2903L14.3881 46.7895ZM13.5603 46.1677L14.0312 45.9997L14.031 45.9989L13.5603 46.1677ZM13.4168 37.2227L12.9972 36.9509L12.997 36.9512L13.4168 37.2227ZM16.7939 35.3763L16.8265 35.8753L16.8268 35.8752L16.7939 35.3763ZM18.7952 34.662L19.2584 34.8503L19.2584 34.8503L18.7952 34.662ZM18.4872 33.8598L18.1102 34.1882L18.1107 34.1888L18.4872 33.8598ZM14.4375 32.8987L14.5691 33.381L14.5697 33.3809L14.4375 32.8987ZM8.26174 40.3533L7.77923 40.2222L7.7791 40.2227L8.26174 40.3533ZM8.91785 45.1805L9.27859 44.8343L9.27755 44.8332L8.91785 45.1805ZM8.89903 46.5237L9.24852 46.8813L9.24965 46.8802L8.89903 46.5237ZM7.56798 46.5047L7.92759 46.1574L7.92753 46.1573L7.56798 46.5047ZM6.4462 39.8527L6.92872 39.9837L6.92875 39.9836L6.4462 39.8527ZM13.9458 31.0669L14.0773 31.5493L14.0774 31.5492L13.9458 31.0669ZM19.9004 32.6071L19.5233 32.9355L19.5238 32.936L19.9004 32.6071ZM20.5353 35.3886L20.9977 35.5788L20.9979 35.5785L20.5353 35.3886ZM16.916 37.2729L16.8832 36.774L16.8832 36.774L16.916 37.2729ZM14.9947 38.2626L14.5753 37.9904L14.5749 37.9909L14.9947 38.2626ZM14.7454 43.3912L14.2559 43.4928L14.5112 44.7222L15.1709 43.6538L14.7454 43.3912ZM21.1963 37.8662L21.2135 37.3665L21.212 37.3665L21.1963 37.8662ZM22.2475 38.3765L21.8636 38.6968L21.8648 38.6982L22.2475 38.3765ZM22.6873 39.5987L22.1894 39.6452L22.2675 40.4802L22.9649 40.0145L22.6873 39.5987ZM31.9298 36.7911L31.9805 37.2885L32.552 37.2303L32.4155 36.6723L31.9298 36.7911ZM37.146 1.70987L36.7908 1.35791L36.7764 1.37244L36.7632 1.3881L37.146 1.70987ZM37.1576 1.69978L37.4696 2.09049L37.4696 2.09048L37.1576 1.69978ZM37.1718 1.68614L36.8029 1.34869L36.7857 1.36746L36.7705 1.38789L37.1718 1.68614ZM37.2588 1.60308L37.5835 1.98332L37.5993 1.9698L37.614 1.95502L37.2588 1.60308ZM37.3176 1.55324L37.0385 1.13838L37.0385 1.13839L37.3176 1.55324ZM37.4056 1.50056L37.6508 1.93633L37.6513 1.93601L37.4056 1.50056ZM37.4258 1.48916L37.6715 1.92461L37.6822 1.9186L37.6925 1.91207L37.4258 1.48916ZM37.4846 1.45593L37.289 0.995662L37.28 0.999719L37.4846 1.45593ZM37.621 1.41084L37.5497 0.915959L37.5239 0.91967L37.4987 0.926032L37.621 1.41084ZM37.6539 1.40188L37.8133 1.8758L37.8179 1.87423L37.6539 1.40188ZM37.654 1.40186L37.4946 0.927922L37.49 0.929509L37.654 1.40186ZM37.6704 1.3966L37.561 0.908723L37.5463 0.912007L37.5319 0.916162L37.6704 1.3966ZM37.8679 1.37524L37.885 0.875536L37.8765 0.875244H37.8679V1.37524ZM38.0067 1.37999L37.9896 1.8797L37.9981 1.87999H38.0067V1.37999ZM38.7239 1.71462L38.3405 2.0355L38.342 2.03729L38.7239 1.71462ZM43.9871 36.6227L43.5011 36.5054L43.3608 37.0865L43.9576 37.1218L43.9871 36.6227ZM59.6305 43.2772L60.116 43.157L60.1133 43.1472L59.6305 43.2772ZM59.6352 43.3081L60.1295 43.2327L60.1261 43.2101L60.1206 43.1879L59.6352 43.3081ZM59.6494 43.4006L60.1444 43.3305L60.1436 43.3253L59.6494 43.4006ZM59.6591 43.5072L59.161 43.5525L59.1623 43.5635L59.6591 43.5072ZM59.6599 43.5145L59.1631 43.5708L59.1637 43.5759L59.6599 43.5145ZM59.6608 43.5222L60.1589 43.4788L60.1589 43.4785L59.6608 43.5222ZM59.6604 43.5472L59.1617 43.5109L59.1617 43.5109L59.6604 43.5472ZM59.6571 43.5777L59.161 43.5154L59.161 43.5157L59.6571 43.5777ZM59.6564 43.5834L59.1603 43.5214L59.1586 43.5347L59.1577 43.5481L59.6564 43.5834ZM59.6562 43.5868L59.1574 43.5514L59.1574 43.5515L59.6562 43.5868ZM59.6446 43.6854L59.1556 43.5815L59.1532 43.5927L59.1513 43.6039L59.6446 43.6854ZM59.6407 43.707L60.1308 43.8058L60.1308 43.8056L59.6407 43.707ZM59.6368 43.7252L59.1489 43.6158L59.1489 43.6159L59.6368 43.7252ZM59.6258 43.7709L60.1055 43.9119L60.1086 43.9016L60.1111 43.8912L59.6258 43.7709ZM59.621 43.7873L59.1413 43.6463L59.1399 43.6511L59.621 43.7873ZM59.6177 43.799L59.1366 43.6628L59.1364 43.6634L59.6177 43.799ZM41.2398 39.5465V40.0465H41.6108L41.7183 39.6915L41.2398 39.5465ZM38.8081 39.5465H38.3081V40.0465H38.8081V39.5465ZM38.8081 5.22952L39.2404 4.97827L38.3081 3.37428V5.22952H38.8081ZM36.9268 39.5465V40.0465H37.4268V39.5465H36.9268ZM36.9268 5.47862H37.4268V3.57815L36.4915 5.23256L36.9268 5.47862ZM34.6338 39.5465L34.1553 39.6915L34.2629 40.0465H34.6338V39.5465ZM56.6039 44.4044L57.0814 44.5526L57.3126 43.8071L56.5388 43.9087L56.6039 44.4044ZM56.599 44.4199L57.0766 44.5682L57.0766 44.5681L56.599 44.4199ZM56.6031 44.4045L56.1256 44.2563L55.8941 45.0019L56.6682 44.9003L56.6031 44.4045ZM57.365 43.0541L57.6967 43.4283L58.0489 43.1162L57.7586 42.7457L57.365 43.0541ZM43.5018 38.4999L43.5278 38.0005L43.1264 37.9797L43.0197 38.3673L43.5018 38.4999ZM42.8269 40.7877L43.3036 40.9385L43.3036 40.9384L42.8269 40.7877ZM33.044 40.7877L32.5668 40.937L32.5673 40.9385L33.044 40.7877ZM32.416 38.6565L32.8977 38.5222L32.7853 38.1192L32.3688 38.1587L32.416 38.6565ZM22.5528 42.0526L22.2451 41.6585L22.0839 41.7844L22.0571 41.9871L22.5528 42.0526ZM22.5314 42.2191L23.0275 42.2818V42.2818L22.5314 42.2191ZM22.4964 42.4869L22.0011 42.4179L22.0007 42.4213L22.4964 42.4869ZM22.2918 44.8174L21.7924 44.8421L21.8335 45.6714L22.5472 45.2472L22.2918 44.8174ZM22.9197 44.1221L22.518 43.8244L22.5166 43.8262L22.9197 44.1221ZM22.9231 44.1175L22.5214 43.8197L22.5213 43.8199L22.9231 44.1175ZM27.8573 44.1175L27.4557 44.4153L27.4557 44.4153L27.8573 44.1175ZM27.8607 44.1221L28.2631 43.8253L28.2623 43.8242L27.8607 44.1221ZM29.7845 44.1221L30.1861 44.4198L30.1862 44.4197L29.7845 44.1221ZM29.7878 44.1175L29.3862 43.8197L29.3861 43.8199L29.7878 44.1175ZM34.7221 44.1175L34.3204 44.4153L34.3205 44.4153L34.7221 44.1175ZM34.7255 44.1221L35.1271 43.8243L35.1271 43.8242L34.7255 44.1221ZM36.6492 44.1221L37.0509 44.4198L37.0516 44.4189L36.6492 44.1221ZM41.5845 44.1175L41.9863 43.8199L41.9862 43.8197L41.5845 44.1175ZM41.5879 44.1221L41.9901 43.825L41.9897 43.8245L41.5879 44.1221ZM43.514 44.1245L43.1124 43.8267L43.1123 43.8267L43.514 44.1245ZM43.5174 44.12L43.1157 43.8222L43.1157 43.8222L43.5174 44.12ZM48.4516 44.1199L48.05 44.4177L48.05 44.4178L48.4516 44.1199ZM48.455 44.1245L48.8574 43.8277L48.8566 43.8266L48.455 44.1245ZM50.3811 44.1221L50.7833 44.4191L50.7835 44.4189L50.3811 44.1221ZM55.3187 44.1175L54.9171 44.4153L54.9171 44.4153L55.3187 44.1175ZM55.3221 44.1221L55.7238 43.8243L55.7237 43.8242L55.3221 44.1221ZM56.4275 44.8838L56.6294 45.3412L56.7334 45.2953L56.8073 45.2089L56.4275 44.8838ZM60.0022 44.1818C60.0328 44.1252 60.0556 44.0688 60.0724 44.0178L59.1228 43.7042C59.122 43.7068 59.1213 43.7085 59.121 43.7092C59.1207 43.71 59.1211 43.7089 59.1225 43.7064L60.0022 44.1818ZM59.2449 43.5578L59.2445 43.5581L59.8802 44.3301L59.8806 44.3297L59.2449 43.5578ZM59.7854 44.4321C59.9333 44.3327 59.9959 44.1959 60.0108 44.1657L59.1148 43.7217C59.1015 43.7485 59.1358 43.6639 59.2273 43.6024L59.7854 44.4321ZM59.8797 44.3567C59.8898 44.3427 59.9092 44.3158 59.9293 44.2839L59.0834 43.7506C59.0828 43.7516 59.0816 43.7535 59.079 43.7571C59.0762 43.7612 59.073 43.7657 59.0672 43.7738L59.8797 44.3567ZM59.8678 44.3735C59.8706 44.3694 59.8738 44.365 59.8796 44.3568L59.0672 43.7737C59.0621 43.7809 59.0543 43.7917 59.0462 43.8035L59.8678 44.3735ZM59.769 44.4949C59.8 44.4601 59.8283 44.4249 59.8488 44.3991L59.0652 43.7779C59.048 43.7995 59.034 43.8166 59.0227 43.8293L59.769 44.4949ZM59.6709 44.5912C59.7046 44.5609 59.7334 44.5318 59.751 44.514L59.0407 43.8101C59.0206 43.8303 59.0117 43.8391 59.0031 43.8468L59.6709 44.5912ZM59.5576 44.6862C59.5988 44.6559 59.6459 44.6177 59.6922 44.571L58.9819 43.8671C58.9818 43.8672 58.9804 43.8685 58.9776 43.8709C58.9748 43.8733 58.9709 43.8764 58.9659 43.88L59.5576 44.6862ZM59.4959 44.7274C59.5113 44.7176 59.5266 44.7076 59.5408 44.698L58.9827 43.8682C58.9753 43.8732 58.9666 43.8789 58.9573 43.8848L59.4959 44.7274ZM59.4502 44.7559C59.4657 44.7465 59.4812 44.7368 59.4959 44.7274L58.9573 43.8849C58.9484 43.8906 58.9398 43.8959 58.9323 43.9005L59.4502 44.7559ZM59.4114 44.7773C59.4155 44.7751 59.4167 44.7745 59.4165 44.7746L58.966 43.8818C58.9517 43.889 58.9391 43.8958 58.9295 43.9011L59.4114 44.7773ZM59.4004 44.7835C59.4054 44.7807 59.4086 44.7789 59.4115 44.7772L58.9293 43.9012C58.9226 43.9049 58.9163 43.9084 58.9117 43.911L59.4004 44.7835ZM59.3177 44.8265C59.3548 44.8092 59.3866 44.7912 59.4004 44.7834L58.9117 43.911C58.9031 43.9158 58.8993 43.9179 58.8962 43.9196C58.8935 43.921 58.8936 43.9209 58.8954 43.9201L59.3177 44.8265ZM59.2635 44.8504C59.2822 44.8429 59.3058 44.8328 59.3318 44.8197L58.8813 43.9269C58.8883 43.9234 58.8924 43.9218 58.8912 43.9223L59.2635 44.8504ZM59.2159 44.8684C59.2257 44.8648 59.2442 44.8581 59.2636 44.8503L58.8911 43.9223C58.8889 43.9232 58.8854 43.9245 58.873 43.929L59.2159 44.8684ZM59.1981 44.875C59.2017 44.8736 59.2061 44.872 59.2159 44.8684L58.873 43.929C58.8647 43.9321 58.8509 43.9371 58.8363 43.9428L59.1981 44.875ZM59.1999 44.8743C59.2034 44.8728 59.2034 44.8728 59.2029 44.873C59.202 44.8734 59.1987 44.8748 59.194 44.8766L58.8404 43.9412C58.8199 43.9489 58.8021 43.9569 58.7979 43.9587L59.1999 44.8743ZM59.161 44.8905C59.1794 44.8834 59.1955 44.8763 59.1997 44.8744L58.7981 43.9586C58.7949 43.96 58.7947 43.9601 58.7949 43.96C58.7955 43.9598 58.7982 43.9586 58.8021 43.9571L59.161 44.8905ZM59.0701 44.9181C59.1075 44.9097 59.1384 44.8992 59.1608 44.8906L58.8023 43.957C58.8116 43.9535 58.8288 43.9474 58.8514 43.9423L59.0701 44.9181ZM58.9478 44.9314C58.9485 44.9314 59.0107 44.9333 59.0832 44.915L58.8383 43.9455C58.9014 43.9295 58.9554 43.9314 58.9478 43.9314V44.9314ZM58.9465 44.9314H58.9478V43.9314H58.9465V44.9314ZM59.057 44.9175C58.9998 44.9319 58.9533 44.9314 58.9481 44.9314L58.945 43.9314C58.9323 43.9315 58.8784 43.9312 58.8128 43.9477L59.057 44.9175ZM58.7091 44.9635C58.8379 44.9635 58.9562 44.9437 59.0609 44.9165L58.8089 43.9487C58.7678 43.9594 58.7356 43.9635 58.7091 43.9635V44.9635ZM58.5657 44.4801C58.7676 44.9375 58.7674 44.9376 58.7671 44.9377C58.7671 44.9377 58.7668 44.9378 58.7667 44.9379C58.7664 44.938 58.7661 44.9382 58.7658 44.9383C58.7651 44.9386 58.7645 44.9388 58.7639 44.9391C58.7627 44.9396 58.7615 44.9401 58.7603 44.9406C58.7579 44.9416 58.7556 44.9426 58.7533 44.9435C58.7487 44.9454 58.7442 44.9471 58.74 44.9487C58.7316 44.9518 58.7239 44.9543 58.7171 44.9563C58.7036 44.9604 58.6936 44.9625 58.6879 44.9636C58.6768 44.9656 58.6821 44.9635 58.7091 44.9635V43.9635C58.6303 43.9635 58.5639 43.9696 58.5075 43.98C58.4792 43.9852 58.4532 43.9915 58.4293 43.9986C58.4173 44.0022 58.4059 44.0061 58.395 44.0101C58.3895 44.0121 58.3842 44.0141 58.379 44.0162C58.3764 44.0173 58.3738 44.0184 58.3712 44.0194C58.37 44.02 58.3687 44.0205 58.3675 44.021C58.3668 44.0213 58.3662 44.0216 58.3656 44.0219C58.3653 44.022 58.365 44.0221 58.3647 44.0223C58.3645 44.0223 58.3643 44.0224 58.3642 44.0225C58.364 44.0226 58.3637 44.0227 58.5657 44.4801ZM58.8716 45.0923C58.897 45.0104 58.9265 44.9156 58.9544 44.8356C58.9685 44.7953 58.9797 44.7659 58.9875 44.7476C58.9914 44.7384 58.9922 44.7373 58.9899 44.7418C58.9886 44.7442 58.9851 44.7507 58.9793 44.7598C58.974 44.7681 58.9629 44.7849 58.9455 44.8052L58.1858 44.155C58.1185 44.2336 58.0795 44.3274 58.0677 44.3551C58.0471 44.4035 58.0274 44.4569 58.0102 44.5062C57.9756 44.6055 57.9409 44.7174 57.9165 44.7959L58.8716 45.0923ZM58.8668 45.1078L58.8716 45.0924L57.9166 44.7957L57.9118 44.8111L58.8668 45.1078ZM56.2728 47.2869C57.205 47.2869 57.8279 46.9051 58.2307 46.4119C58.6123 45.9445 58.777 45.3983 58.867 45.1072L57.9116 44.8118C57.8182 45.1139 57.6994 45.4815 57.4561 45.7794C57.2339 46.0516 56.8902 46.2869 56.2728 46.2869V47.2869ZM53.4052 45.5466C53.8791 46.1859 54.6727 47.2869 56.2728 47.2869V46.2869C55.2215 46.2869 54.6981 45.6115 54.2085 44.951L53.4052 45.5466ZM53.4016 45.5418L53.405 45.5464L54.2086 44.9512L54.2052 44.9466L53.4016 45.5418ZM52.8415 44.9634C52.8841 44.9634 52.8991 44.9684 52.9036 44.97C52.9079 44.9716 52.9245 44.9777 52.9596 45.007C53.0471 45.0801 53.1687 45.2247 53.4005 45.5402L54.2064 44.9482C53.9866 44.6491 53.7966 44.4032 53.6007 44.2396C53.3657 44.0433 53.1236 43.9634 52.8415 43.9634V44.9634ZM52.2813 45.5396C52.5149 45.2245 52.6364 45.0801 52.7243 45.0068C52.7594 44.9775 52.7759 44.9714 52.7799 44.9699C52.7842 44.9684 52.799 44.9634 52.8415 44.9634V43.9634C52.5592 43.9634 52.3178 44.0435 52.0834 44.2392C51.8884 44.402 51.6983 44.6468 51.478 44.944L52.2813 45.5396ZM52.2779 45.5442L52.2813 45.5396L51.478 44.944L51.4747 44.9485L52.2779 45.5442ZM49.408 47.2844C51.0102 47.2844 51.8038 46.1837 52.278 45.5441L51.4746 44.9485C50.9852 45.6087 50.4617 46.2844 49.408 46.2844V47.2844ZM46.5404 45.5442C47.0143 46.1834 47.808 47.2844 49.408 47.2844V46.2844C48.3567 46.2844 47.8334 45.6091 47.3437 44.9486L46.5404 45.5442ZM46.5371 45.5397L46.5405 45.5443L47.3436 44.9485L47.3402 44.9439L46.5371 45.5397ZM45.9768 44.9634C46.0193 44.9634 46.0344 44.9684 46.0391 44.9701C46.0435 44.9717 46.0602 44.9779 46.0953 45.0071C46.1828 45.0801 46.3044 45.2242 46.5362 45.5386L47.341 44.945C47.1213 44.6471 46.9313 44.4021 46.7354 44.2389C46.5006 44.0432 46.2588 43.9634 45.9768 43.9634V44.9634ZM45.4171 45.5412C45.6501 45.2257 45.7725 45.0806 45.8605 45.007C45.8959 44.9775 45.9126 44.9713 45.9167 44.9698C45.9208 44.9683 45.9352 44.9634 45.9768 44.9634V43.9634C45.6949 43.9634 45.4536 44.0439 45.2194 44.2396C45.024 44.4028 44.8335 44.6481 44.6127 44.9472L45.4171 45.5412ZM42.5456 47.2869C44.1491 47.2869 44.9449 46.1813 45.4172 45.5411L44.6125 44.9474C44.1254 45.6077 43.5995 46.2869 42.5456 46.2869V47.2869ZM39.6756 45.5466C40.1498 46.1861 40.9434 47.2869 42.5456 47.2869V46.2869C41.4918 46.2869 40.9684 45.6112 40.4789 44.951L39.6756 45.5466ZM39.6722 45.542L39.6756 45.5466L40.4789 44.951L40.4755 44.9464L39.6722 45.542ZM39.112 44.9658C39.1545 44.9658 39.1697 44.9709 39.1743 44.9725C39.1787 44.9741 39.1954 44.9803 39.2305 45.0096C39.3181 45.0825 39.4396 45.2266 39.6715 45.541L40.4763 44.9475C40.2566 44.6496 40.0665 44.4045 39.8707 44.2413C39.6359 44.0457 39.394 43.9658 39.112 43.9658V44.9658ZM38.5518 45.542C38.7853 45.227 38.9069 45.0826 38.9947 45.0092C39.0299 44.9799 39.0464 44.9738 39.0504 44.9724C39.0546 44.9709 39.0695 44.9658 39.112 44.9658V43.9658C38.8296 43.9658 38.5882 44.0459 38.3538 44.2416C38.1589 44.4044 37.9688 44.6492 37.7484 44.9465L38.5518 45.542ZM35.6808 47.2869C37.2868 47.2869 38.0803 46.181 38.5525 45.5411L37.7478 44.9474C37.2604 45.608 36.7369 46.2869 35.6808 46.2869V47.2869ZM32.8132 45.5466C33.2871 46.1858 34.0808 47.2869 35.6808 47.2869V46.2869C34.6295 46.2869 34.1062 45.6115 33.6165 44.951L32.8132 45.5466ZM32.8099 45.5421L32.8133 45.5467L33.6165 44.951L33.6131 44.9464L32.8099 45.5421ZM32.2496 44.9658C32.2921 44.9658 32.3073 44.9709 32.3119 44.9725C32.3163 44.9741 32.333 44.9803 32.3681 45.0096C32.4557 45.0825 32.5772 45.2266 32.8091 45.541L33.6139 44.9475C33.3942 44.6496 33.2041 44.4045 33.0082 44.2413C32.7735 44.0457 32.5316 43.9658 32.2496 43.9658V44.9658ZM31.6899 45.5437C31.9229 45.2281 32.0453 45.083 32.1333 45.0095C32.1687 44.9799 32.1854 44.9737 32.1895 44.9723C32.1936 44.9708 32.208 44.9658 32.2496 44.9658V43.9658C31.9677 43.9658 31.7264 44.0464 31.4922 44.242C31.2968 44.4053 31.1063 44.6505 30.8855 44.9496L31.6899 45.5437ZM28.8184 47.2893C30.4219 47.2893 31.2177 46.1837 31.69 45.5435L30.8854 44.9498C30.3982 45.6101 29.8723 46.2893 28.8184 46.2893V47.2893ZM25.9508 45.549C26.4247 46.1883 27.2183 47.2893 28.8184 47.2893V46.2893C27.7671 46.2893 27.2438 45.6139 26.7541 44.9535L25.9508 45.549ZM25.9474 45.5445L25.9508 45.5491L26.754 44.9534L26.7506 44.9488L25.9474 45.5445ZM25.3872 44.9683C25.4297 44.9683 25.4448 44.9733 25.4494 44.9749C25.4539 44.9765 25.4706 44.9827 25.5057 45.012C25.5932 45.0849 25.7148 45.2291 25.9466 45.5434L26.7514 44.9499C26.5317 44.652 26.3417 44.4069 26.1458 44.2437C25.911 44.0481 25.6691 43.9683 25.3872 43.9683V44.9683ZM24.8275 45.5461C25.0605 45.2305 25.1829 45.0854 25.2709 45.0119C25.3063 44.9823 25.323 44.9761 25.327 44.9747C25.3312 44.9732 25.3456 44.9683 25.3872 44.9683V43.9683C25.1053 43.9683 24.864 44.0488 24.6297 44.2445C24.4344 44.4077 24.2439 44.653 24.0231 44.9521L24.8275 45.5461ZM21.9559 47.2917C23.5594 47.2917 24.3553 46.1861 24.8276 45.5459L24.0229 44.9522C23.5357 45.6126 23.0099 46.2917 21.9559 46.2917V47.2917ZM20.5027 46.632C20.8702 47.0577 21.3928 47.2917 21.9559 47.2917V46.2917C21.677 46.2917 21.433 46.1793 21.2597 45.9785L20.5027 46.632ZM20.1315 42.1622C19.9975 43.1716 19.8905 44.0422 19.9068 44.7586C19.9233 45.4789 20.0646 46.1281 20.5039 46.6333L21.2585 45.9771C21.0416 45.7277 20.9207 45.3564 20.9066 44.7358C20.8923 44.1113 20.9865 43.3206 21.1228 42.2938L20.1315 42.1622ZM20.1361 42.1278L20.1314 42.163L21.123 42.293L21.1276 42.2577L20.1361 42.1278ZM20.3291 39.8302C20.3488 40.0519 20.3292 40.4271 20.2862 40.8697C20.2444 41.3013 20.1845 41.7581 20.1361 42.1277L21.1276 42.2577C21.1757 41.8907 21.2378 41.4173 21.2816 40.9663C21.3242 40.5264 21.354 40.0666 21.3251 39.7416L20.3291 39.8302ZM15.7312 46.4935C16.3642 45.2287 17.2924 43.7248 18.2722 42.501C18.7622 41.889 19.2562 41.3582 19.724 40.964C20.2007 40.5622 20.6077 40.3388 20.9238 40.2765L20.7304 39.2954C20.1682 39.4062 19.6047 39.7568 19.0796 40.1994C18.5454 40.6495 18.006 41.2334 17.4916 41.876C16.4624 43.1614 15.4974 44.7263 14.837 46.046L15.7312 46.4935ZM14.4446 47.2918C14.9862 47.2918 15.4873 46.9858 15.7321 46.4917L14.8361 46.0478C14.761 46.1992 14.6084 46.2918 14.4446 46.2918V47.2918ZM14.3255 47.2855C14.3807 47.2925 14.4308 47.2918 14.4446 47.2918V46.2918C14.4395 46.2918 14.4368 46.2918 14.4344 46.2918C14.4322 46.2918 14.4317 46.2918 14.4321 46.2918C14.4328 46.2918 14.4399 46.292 14.4507 46.2934L14.3255 47.2855ZM13.0894 46.3357C13.2836 46.8802 13.7842 47.2558 14.3596 47.2887L14.4166 46.2903C14.2441 46.2804 14.091 46.1672 14.0312 45.9997L13.0894 46.3357ZM12.997 36.9512C11.933 38.5967 11.9395 40.8397 12.1917 42.6521C12.4475 44.4906 12.9764 46.0208 13.0897 46.3365L14.031 45.9989C13.9278 45.7113 13.4243 44.2547 13.1822 42.5143C12.9364 40.7479 12.9794 38.8201 13.8367 37.4942L12.997 36.9512ZM16.7614 34.8774C15.1358 34.9835 13.8146 35.6893 12.9972 36.9509L13.8365 37.4946C14.4584 36.5347 15.4701 35.9638 16.8265 35.8753L16.7614 34.8774ZM18.3321 34.4736C18.3527 34.4229 18.3336 34.5115 18.0482 34.6287C17.7884 34.7355 17.373 34.8371 16.761 34.8774L16.8268 35.8752C17.5106 35.8302 18.0395 35.7134 18.4282 35.5537C18.7913 35.4046 19.1249 35.1787 19.2584 34.8503L18.3321 34.4736ZM18.1107 34.1888C18.2129 34.3058 18.2733 34.4103 18.3013 34.4833C18.315 34.5192 18.3173 34.538 18.3175 34.5404C18.3177 34.5431 18.3148 34.5161 18.3321 34.4737L19.2584 34.8503C19.3651 34.5878 19.3086 34.3174 19.2351 34.1257C19.1561 33.9192 19.0249 33.7153 18.8637 33.5308L18.1107 34.1888ZM14.5697 33.3809C16.1783 32.9397 17.5429 33.5371 18.1102 34.1882L18.8642 33.5314C18.0297 32.5735 16.2618 31.8799 14.3052 32.4165L14.5697 33.3809ZM8.74425 40.4844C9.19053 38.8418 10.0804 37.2097 11.1578 35.9092C12.2431 34.5992 13.4725 33.6802 14.5691 33.381L14.3059 32.4163C12.9307 32.7915 11.539 33.8816 10.3878 35.2712C9.22867 36.6703 8.2666 38.4284 7.77923 40.2222L8.74425 40.4844ZM9.27755 44.8332C8.72404 44.2599 8.50066 43.4909 8.46581 42.6796C8.43096 41.8681 8.58782 41.0625 8.74438 40.4839L7.7791 40.2227C7.60876 40.8522 7.42576 41.7684 7.46674 42.7225C7.50772 43.6769 7.77584 44.7175 8.55814 45.5278L9.27755 44.8332ZM9.24965 46.8802C9.81631 46.3228 9.83038 45.4092 9.27858 44.8343L8.55711 45.5267C8.72964 45.7065 8.7249 45.9937 8.54841 46.1673L9.24965 46.8802ZM7.20837 46.8521C7.76606 47.4294 8.67683 47.4401 9.24852 46.8813L8.54954 46.1662C8.37338 46.3383 8.09894 46.3347 7.92759 46.1574L7.20837 46.8521ZM5.96367 39.7216C5.18555 42.5869 5.56978 45.1565 7.20843 46.8522L7.92753 46.1573C6.6171 44.8012 6.20644 42.6434 6.92872 39.9837L5.96367 39.7216ZM13.8143 30.5845C11.9466 31.0935 10.2324 32.4808 8.87525 34.1563C7.51344 35.8375 6.46876 37.8602 5.96365 39.7217L6.92875 39.9836C7.39473 38.2663 8.37133 36.3671 9.65231 34.7857C10.9379 33.1986 12.488 31.9824 14.0773 31.5493L13.8143 30.5845ZM20.2774 32.2787C19.0425 30.8609 16.576 29.8311 13.8142 30.5845L14.0774 31.5492C16.4659 30.8977 18.5382 31.8044 19.5233 32.9355L20.2774 32.2787ZM20.9979 35.5785C21.4514 34.4742 21.1381 33.2642 20.2769 32.2782L19.5238 32.936C20.2006 33.711 20.3483 34.5277 20.0728 35.1986L20.9979 35.5785ZM16.9489 37.7719C18.2171 37.6884 19.1289 37.3936 19.7798 36.9834C20.4362 36.5697 20.8021 36.0542 20.9977 35.5788L20.073 35.1983C19.9511 35.4943 19.7161 35.8415 19.2466 36.1374C18.7716 36.4367 18.0325 36.6984 16.8832 36.774L16.9489 37.7719ZM15.4141 38.5348C15.7001 38.094 16.163 37.8236 16.9489 37.7719L16.8832 36.774C15.8677 36.8409 15.0747 37.2208 14.5753 37.9904L15.4141 38.5348ZM15.235 43.2895C15.0593 42.4435 14.9301 41.5054 14.9379 40.6409C14.9458 39.7644 15.0944 39.0288 15.4145 38.5342L14.5749 37.9909C14.1025 38.7209 13.9465 39.6834 13.9379 40.6319C13.9293 41.5924 14.0717 42.6063 14.2559 43.4928L15.235 43.2895ZM21.212 37.3665C19.7158 37.3194 18.3265 38.257 17.1868 39.3862C16.03 40.5324 15.0339 41.9721 14.32 43.1285L15.1709 43.6538C15.868 42.5247 16.8157 41.1616 17.8907 40.0966C18.9828 39.0145 20.1134 38.3324 21.1806 38.366L21.212 37.3665ZM22.6314 38.0561C22.2752 37.6292 21.7669 37.3855 21.2135 37.3665L21.1791 38.3659C21.4535 38.3754 21.6931 38.4924 21.8636 38.6968L22.6314 38.0561ZM23.1851 39.5521C23.1329 38.9933 22.9834 38.4748 22.6302 38.0547L21.8648 38.6982C22.0384 38.9047 22.1476 39.1978 22.1894 39.6452L23.1851 39.5521ZM31.8791 36.2937C26.8274 36.8083 24.2199 37.974 22.4096 39.1828L22.9649 40.0145C24.6163 38.9118 27.061 37.7897 31.9805 37.2885L31.8791 36.2937ZM36.7632 1.3881C36.243 2.00682 25.9882 14.6047 31.4441 36.9099L32.4155 36.6723C27.0625 14.7878 37.127 2.50936 37.5287 2.03165L36.7632 1.3881ZM36.8456 1.30907C36.8436 1.31064 36.8179 1.33053 36.7908 1.35791L37.5011 2.06184C37.4908 2.07226 37.4818 2.08015 37.476 2.08512C37.471 2.08939 37.4668 2.09266 37.4696 2.09049L36.8456 1.30907ZM36.7705 1.38789C36.792 1.35899 36.8129 1.33802 36.8274 1.32475C36.8396 1.31358 36.8505 1.30514 36.8456 1.30907L37.4696 2.09048C37.4699 2.09023 37.4858 2.07774 37.5028 2.06218C37.5221 2.04452 37.5475 2.01882 37.5731 1.9844L36.7705 1.38789ZM36.9342 1.22283C36.8934 1.25761 36.8491 1.29816 36.8029 1.34869L37.5408 2.02359C37.551 2.01242 37.5631 2.00076 37.5835 1.98332L36.9342 1.22283ZM37.0385 1.13839C36.9813 1.17686 36.937 1.21752 36.9037 1.25114L37.614 1.95502C37.6183 1.95066 37.6116 1.9581 37.5967 1.96809L37.0385 1.13839ZM37.1604 1.06479C37.1327 1.08039 37.0866 1.10605 37.0385 1.13838L37.5967 1.9681C37.6065 1.96155 37.6181 1.95469 37.6508 1.93633L37.1604 1.06479ZM37.1801 1.05371L37.1599 1.06511L37.6513 1.93601L37.6715 1.92461L37.1801 1.05371ZM37.28 0.999719C37.2216 1.02593 37.1738 1.05697 37.1591 1.06625L37.6925 1.91207C37.6976 1.9089 37.7003 1.90715 37.7028 1.90563C37.7051 1.90424 37.7058 1.90384 37.7055 1.90398C37.705 1.90427 37.699 1.90776 37.6892 1.91215L37.28 0.999719ZM37.4987 0.926032C37.432 0.942863 37.3621 0.964739 37.2891 0.995752L37.6801 1.91612C37.6965 1.90916 37.716 1.90255 37.7433 1.89565L37.4987 0.926032ZM37.4945 0.927974C37.4872 0.930438 37.4921 0.928691 37.4989 0.926724C37.5068 0.924469 37.5249 0.919521 37.5497 0.915959L37.6923 1.90573C37.7563 1.89651 37.8111 1.87653 37.8133 1.87578L37.4945 0.927974ZM37.49 0.929509L37.49 0.929523L37.8179 1.87423L37.8179 1.87422L37.49 0.929509ZM37.5319 0.916162C37.5141 0.921288 37.4982 0.92672 37.4946 0.927944L37.8133 1.87578C37.8165 1.87472 37.8167 1.87467 37.8164 1.87475C37.8159 1.87493 37.8131 1.87584 37.8089 1.87704L37.5319 0.916162ZM37.8679 0.875244C37.7647 0.875244 37.6621 0.886049 37.561 0.908723L37.7798 1.88448C37.8057 1.87868 37.8348 1.87524 37.8679 1.87524V0.875244ZM38.0238 0.880283L37.885 0.875536L37.8508 1.87495L37.9896 1.8797L38.0238 0.880283ZM39.1074 1.39374C38.8331 1.06599 38.4314 0.87999 38.0067 0.87999V1.87999C38.137 1.87999 38.2573 1.93606 38.3405 2.03549L39.1074 1.39374ZM44.4731 36.74C49.8316 14.5425 39.6269 2.00865 39.1059 1.39194L38.342 2.03729C38.7428 2.51175 48.7583 14.7271 43.5011 36.5054L44.4731 36.74ZM60.1133 43.1472C60.0531 42.9236 59.5495 41.3619 57.2774 39.7577C55.0119 38.1582 51.0189 36.5378 44.0166 36.1236L43.9576 37.1218C50.835 37.5287 54.6308 39.1133 56.7006 40.5746C58.7639 42.0314 59.1421 43.3864 59.1478 43.4073L60.1133 43.1472ZM60.1206 43.1879C60.1256 43.208 60.1279 43.2237 60.1289 43.2305C60.1294 43.2343 60.1298 43.237 60.1299 43.2381C60.13 43.239 60.1301 43.2395 60.1299 43.2379C60.1298 43.2369 60.1294 43.2336 60.129 43.2301C60.1286 43.2264 60.1279 43.221 60.127 43.2146C60.1253 43.2026 60.122 43.1819 60.1159 43.157L59.1452 43.3974C59.1402 43.3773 59.1378 43.3616 59.1369 43.3548C59.1363 43.351 59.136 43.3482 59.1359 43.3472C59.1358 43.3463 59.1357 43.3457 59.1359 43.3474C59.136 43.3484 59.1364 43.3516 59.1368 43.3552C59.1372 43.3589 59.1379 43.3643 59.1388 43.3707C59.1405 43.3827 59.1437 43.4034 59.1499 43.4282L60.1206 43.1879ZM60.1436 43.3253L60.1295 43.2327L59.141 43.3834L59.1551 43.476L60.1436 43.3253ZM60.1588 43.5003C60.1588 43.4259 60.1483 43.3576 60.1444 43.3305L59.1543 43.4707C59.1555 43.4794 59.1564 43.4855 59.1572 43.4913C59.1579 43.4969 59.1583 43.5006 59.1586 43.5032C59.1592 43.5088 59.1588 43.5068 59.1588 43.5003H60.1588ZM60.1571 43.462C60.1577 43.4696 60.1588 43.4831 60.1588 43.5003H59.1588C59.1588 43.5221 59.16 43.5402 59.1612 43.5525L60.1571 43.462ZM60.1568 43.4583L60.1559 43.451L59.1623 43.5635L59.1631 43.5708L60.1568 43.4583ZM60.1589 43.4785C60.1577 43.4656 60.1563 43.4542 60.1562 43.4532L59.1637 43.5759C59.1639 43.5776 59.1638 43.5766 59.1637 43.5754C59.1635 43.5738 59.1631 43.5704 59.1627 43.5659L60.1589 43.4785ZM60.1611 43.5288C60.1611 43.5078 60.1599 43.4903 60.1589 43.4788L59.1627 43.5657C59.1621 43.5585 59.1611 43.5454 59.1611 43.5288H60.1611ZM60.1591 43.5834C60.1603 43.5674 60.1611 43.5491 60.1611 43.5288H59.1611C59.1611 43.5211 59.1614 43.5149 59.1617 43.5109L60.1591 43.5834ZM60.1532 43.6399C60.1543 43.6316 60.1573 43.6087 60.1591 43.5834L59.1617 43.5109C59.162 43.5076 59.1622 43.5058 59.1621 43.5066C59.162 43.5078 59.1617 43.5096 59.161 43.5154L60.1532 43.6399ZM60.1526 43.6453L60.1533 43.6396L59.161 43.5157L59.1603 43.5214L60.1526 43.6453ZM60.1549 43.6221L60.1552 43.6187L59.1577 43.5481L59.1574 43.5514L60.1549 43.6221ZM60.1337 43.7893C60.149 43.7173 60.1531 43.6477 60.1549 43.622L59.1574 43.5515C59.1568 43.5599 59.1564 43.566 59.1559 43.5717C59.1555 43.5773 59.1551 43.5812 59.1548 43.584C59.1542 43.5902 59.1541 43.5883 59.1556 43.5815L60.1337 43.7893ZM60.1308 43.8056C60.1332 43.7938 60.1357 43.7808 60.138 43.7669L59.1513 43.6039C59.1513 43.6044 59.151 43.6058 59.1505 43.6084L60.1308 43.8056ZM60.1247 43.8346C60.1267 43.8256 60.1288 43.816 60.1308 43.8058L59.1505 43.6083C59.1501 43.6102 59.1496 43.6127 59.1489 43.6158L60.1247 43.8346ZM60.1111 43.8912C60.1147 43.8768 60.1198 43.8562 60.1247 43.8345L59.1489 43.6159C59.1469 43.6247 59.1445 43.6345 59.1405 43.6505L60.1111 43.8912ZM60.1007 43.9284L60.1055 43.9119L59.1461 43.6298L59.1413 43.6463L60.1007 43.9284ZM60.0988 43.9352L60.1021 43.9235L59.1399 43.6511L59.1366 43.6628L60.0988 43.9352ZM60.0598 44.0518C60.081 44.0003 60.0944 43.9507 60.099 43.9345L59.1364 43.6634C59.1348 43.669 59.1338 43.6726 59.1329 43.6759C59.132 43.679 59.1315 43.6805 59.1313 43.6812C59.1308 43.6828 59.1322 43.6782 59.1355 43.6702L60.0598 44.0518ZM41.2398 39.0465H38.8081V40.0465H41.2398V39.0465ZM38.3758 5.48078C41.0722 10.1198 46.0674 21.8903 40.7613 39.4015L41.7183 39.6915C47.1225 21.8565 42.0424 9.79905 39.2404 4.97827L38.3758 5.48078ZM39.3081 39.5465V5.22952H38.3081V39.5465H39.3081ZM37.4268 39.5465V5.47862H36.4268V39.5465H37.4268ZM34.6338 40.0465H36.9268V39.0465H34.6338V40.0465ZM36.4915 5.23256C33.6699 10.2238 28.8557 22.2034 34.1553 39.6915L35.1123 39.4015C29.9091 22.2311 34.643 10.5344 37.362 5.72468L36.4915 5.23256ZM56.1263 44.2563L56.1215 44.2718L57.0766 44.5681L57.0814 44.5526L56.1263 44.2563ZM56.6682 44.9003L56.6689 44.9002L56.5388 43.9087L56.538 43.9088L56.6682 44.9003ZM57.0334 42.6799C56.454 43.1934 56.2343 43.9062 56.1256 44.2563L57.0806 44.5528C57.193 44.1909 57.3494 43.736 57.6967 43.4283L57.0334 42.6799ZM43.4759 38.9992C52.9292 39.4909 56.0511 42.1881 56.9715 43.3626L57.7586 42.7457C56.5959 41.2621 53.1471 38.5009 43.5278 38.0005L43.4759 38.9992ZM43.3036 40.9384C43.5503 40.1582 43.7755 39.3903 43.9839 38.6325L43.0197 38.3673C42.8143 39.1141 42.5927 39.8698 42.3501 40.637L43.3036 40.9384ZM41.9309 41.9498C42.5619 41.9498 43.1143 41.5367 43.3036 40.9385L42.3502 40.6368C42.2902 40.8265 42.1183 40.9498 41.9309 40.9498V41.9498ZM33.94 41.9498H41.9309V40.9498H33.94V41.9498ZM32.5673 40.9385C32.7566 41.5368 33.309 41.9498 33.94 41.9498V40.9498C33.7525 40.9498 33.5807 40.8265 33.5207 40.6368L32.5673 40.9385ZM31.9344 38.7908C32.1307 39.4947 32.3391 40.2095 32.5668 40.937L33.5212 40.6383C33.2973 39.9229 33.0918 39.2184 32.8977 38.5222L31.9344 38.7908ZM22.8605 42.4467C23.6731 41.8121 24.5853 41.1389 26.0265 40.5485C27.4734 39.9557 29.4755 39.4381 32.4633 39.1543L32.3688 38.1587C29.3102 38.4493 27.2073 38.9841 25.6475 39.6231C24.082 40.2644 23.0858 41.002 22.2451 41.6585L22.8605 42.4467ZM23.0275 42.2818C23.0346 42.2259 23.0414 42.1721 23.0485 42.1181L22.0571 41.9871C22.0496 42.0443 22.0424 42.1008 22.0354 42.1563L23.0275 42.2818ZM22.9916 42.5559C23.005 42.4597 23.0165 42.3684 23.0275 42.2818L22.0354 42.1563C22.0243 42.2437 22.0136 42.3289 22.0012 42.4179L22.9916 42.5559ZM22.7912 44.7927C22.7658 44.2802 22.8972 43.2688 22.992 42.5525L22.0007 42.4213C21.9121 43.0909 21.7613 44.2155 21.7924 44.8421L22.7912 44.7927ZM22.5166 43.8262C22.219 44.2317 22.1039 44.3474 22.0363 44.3876L22.5472 45.2472C22.823 45.0833 23.056 44.7814 23.3228 44.4179L22.5166 43.8262ZM22.5213 43.8199L22.518 43.8244L23.3214 44.4197L23.3248 44.4152L22.5213 43.8199ZM25.3914 42.0794C23.7892 42.0794 22.9956 43.1802 22.5214 43.8197L23.3247 44.4153C23.8142 43.7551 24.3376 43.0794 25.3914 43.0794V42.0794ZM28.259 43.8197C27.785 43.1804 26.9914 42.0794 25.3914 42.0794V43.0794C26.4426 43.0794 26.966 43.7548 27.4557 44.4153L28.259 43.8197ZM28.2623 43.8242L28.2589 43.8196L27.4557 44.4153L27.4591 44.4199L28.2623 43.8242ZM28.8226 44.4005C28.7801 44.4005 28.7649 44.3954 28.7603 44.3938C28.7559 44.3922 28.7392 44.386 28.7041 44.3567C28.6165 44.2838 28.495 44.1397 28.2631 43.8253L27.4583 44.4188C27.678 44.7167 27.8681 44.9618 28.0639 45.125C28.2987 45.3206 28.5406 45.4005 28.8226 45.4005V44.4005ZM29.3828 43.8243C29.1493 44.1393 29.0277 44.2837 28.9399 44.3571C28.9047 44.3864 28.8882 44.3925 28.8842 44.3939C28.88 44.3954 28.8651 44.4005 28.8226 44.4005V45.4005C29.105 45.4005 29.3464 45.3204 29.5808 45.1247C29.7757 44.9619 29.9658 44.7171 30.1861 44.4198L29.3828 43.8243ZM29.3861 43.8199L29.3827 43.8244L30.1862 44.4197L30.1896 44.4152L29.3861 43.8199ZM32.2561 42.0794C30.654 42.0794 29.8603 43.1802 29.3862 43.8197L30.1895 44.4153C30.6789 43.7551 31.2024 43.0794 32.2561 43.0794V42.0794ZM35.1237 43.8197C34.6498 43.1804 33.8562 42.0794 32.2561 42.0794V43.0794C33.3074 43.0794 33.8308 43.7548 34.3204 44.4153L35.1237 43.8197ZM35.1271 43.8242L35.1237 43.8196L34.3205 44.4153L34.3239 44.4199L35.1271 43.8242ZM35.6874 44.4005C35.6458 44.4005 35.6313 44.3955 35.627 44.394C35.6228 44.3925 35.606 44.3863 35.5706 44.3567C35.4825 44.2833 35.3602 44.1387 35.1271 43.8243L34.3238 44.4198C34.5446 44.7177 34.7351 44.9622 34.9305 45.125C35.1645 45.32 35.4056 45.4005 35.6874 45.4005V44.4005ZM36.2476 43.8243C36.014 44.1393 35.8925 44.2837 35.8046 44.3571C35.7695 44.3864 35.753 44.3925 35.7489 44.3939C35.7447 44.3954 35.7299 44.4005 35.6874 44.4005V45.4005C35.9697 45.4005 36.2111 45.3204 36.4455 45.1247C36.6405 44.9619 36.8305 44.7171 37.0509 44.4198L36.2476 43.8243ZM39.1186 42.0794C37.5126 42.0794 36.719 43.1853 36.2469 43.8252L37.0516 44.4189C37.539 43.7583 38.0625 43.0794 39.1186 43.0794V42.0794ZM41.9862 43.8197C41.5122 43.1804 40.7186 42.0794 39.1186 42.0794V43.0794C40.1698 43.0794 40.6932 43.7548 41.1828 44.4152L41.9862 43.8197ZM41.9897 43.8245L41.9863 43.8199L41.1827 44.4151L41.1861 44.4196L41.9897 43.8245ZM42.5521 44.4029C42.5096 44.4029 42.4945 44.3978 42.4899 44.3962C42.4855 44.3946 42.4687 44.3884 42.4334 44.3589C42.3454 44.2856 42.2232 44.1407 41.9901 43.825L41.1857 44.4191C41.4065 44.7181 41.5971 44.9637 41.7931 45.127C42.0281 45.3229 42.27 45.4029 42.5521 45.4029V44.4029ZM43.1123 43.8267C42.8788 44.1418 42.7572 44.2861 42.6694 44.3595C42.6342 44.3888 42.6178 44.3949 42.6137 44.3963C42.6095 44.3978 42.5946 44.4029 42.5521 44.4029V45.4029C42.8345 45.4029 43.0759 45.3228 43.3103 45.1271C43.5053 44.9643 43.6953 44.7195 43.9157 44.4222L43.1123 43.8267ZM43.1157 43.8222L43.1124 43.8267L43.9157 44.4223L43.919 44.4177L43.1157 43.8222ZM45.9857 42.0819C44.3835 42.0819 43.5899 43.1826 43.1157 43.8222L43.919 44.4177C44.4085 43.7576 44.9319 43.0819 45.9857 43.0819V42.0819ZM48.8533 43.8221C48.3793 43.1829 47.5857 42.0819 45.9857 42.0819V43.0819C47.037 43.0819 47.5603 43.7572 48.05 44.4177L48.8533 43.8221ZM48.8566 43.8266L48.8532 43.8221L48.05 44.4178L48.0534 44.4223L48.8566 43.8266ZM49.4169 44.4029C49.3744 44.4029 49.3592 44.3978 49.3546 44.3962C49.3502 44.3946 49.3335 44.3884 49.2984 44.3591C49.2108 44.2862 49.0893 44.1421 48.8574 43.8277L48.0526 44.4213C48.2723 44.7192 48.4624 44.9642 48.6582 45.1274C48.893 45.3231 49.1349 45.4029 49.4169 45.4029V44.4029ZM49.9789 43.825C49.7458 44.1407 49.6236 44.2855 49.5356 44.3589C49.5003 44.3884 49.4835 44.3946 49.4791 44.3962C49.4745 44.3978 49.4594 44.4029 49.4169 44.4029V45.4029C49.6991 45.4029 49.941 45.3229 50.176 45.127C50.3719 44.9636 50.5625 44.7181 50.7833 44.4191L49.9789 43.825ZM52.8505 42.0794C51.247 42.0794 50.4511 43.185 49.9788 43.8252L50.7835 44.4189C51.2707 43.7586 51.7965 43.0794 52.8505 43.0794V42.0794ZM55.7204 43.8197C55.2462 43.1801 54.4527 42.0794 52.8505 42.0794V43.0794C53.9042 43.0794 54.4276 43.7551 54.9171 44.4153L55.7204 43.8197ZM55.7237 43.8242L55.7203 43.8196L54.9171 44.4153L54.9205 44.4199L55.7237 43.8242ZM56.284 44.4005C56.2425 44.4005 56.2279 44.3955 56.2237 44.394C56.2195 44.3925 56.2027 44.3863 56.1673 44.3567C56.0792 44.2833 55.9569 44.1387 55.7238 43.8243L54.9205 44.4198C55.1413 44.7177 55.3318 44.9622 55.5271 45.125C55.7612 45.32 56.0023 45.4005 56.284 45.4005V44.4005ZM56.4275 44.8838C56.2255 44.4264 56.2257 44.4263 56.226 44.4262C56.226 44.4262 56.2263 44.4261 56.2264 44.426C56.2267 44.4259 56.227 44.4258 56.2274 44.4256C56.228 44.4254 56.2286 44.4251 56.2292 44.4248C56.2304 44.4243 56.2316 44.4238 56.2328 44.4233C56.2352 44.4223 56.2375 44.4213 56.2398 44.4204C56.2444 44.4185 56.2489 44.4168 56.2531 44.4153C56.2616 44.4122 56.2692 44.4096 56.276 44.4076C56.2895 44.4035 56.2995 44.4014 56.3052 44.4004C56.3163 44.3983 56.3111 44.4005 56.284 44.4005V45.4005C56.3628 45.4005 56.4292 45.3943 56.4857 45.3839C56.514 45.3787 56.54 45.3725 56.5639 45.3653C56.5758 45.3617 56.5873 45.3579 56.5982 45.3538C56.6037 45.3518 56.609 45.3498 56.6142 45.3477C56.6168 45.3466 56.6194 45.3456 56.6219 45.3445C56.6232 45.3439 56.6244 45.3434 56.6257 45.3429C56.6263 45.3426 56.6269 45.3423 56.6276 45.3421C56.6279 45.3419 56.6282 45.3418 56.6285 45.3416C56.6287 45.3416 56.6289 45.3415 56.629 45.3414C56.6292 45.3413 56.6294 45.3412 56.4275 44.8838ZM56.1215 44.2717C56.0961 44.3536 56.0666 44.4484 56.0387 44.5284C56.0247 44.5687 56.0135 44.598 56.0056 44.6163C56.0017 44.6255 56.0009 44.6266 56.0033 44.6222C56.0045 44.6197 56.0081 44.6132 56.0138 44.6041C56.0191 44.5958 56.0302 44.579 56.0476 44.5587L56.8073 45.2089C56.8747 45.1303 56.9136 45.0365 56.9254 45.0088C56.946 44.9605 56.9657 44.9071 56.9829 44.8578C57.0175 44.7585 57.0522 44.6466 57.0766 44.5682L56.1215 44.2717Z" fill="#222532"/>
<path d="M7.28833 31.1357C7.16839 30.9909 6.0772 29.7307 4.68029 29.7307C4.03358 29.7307 3.10932 29.9989 2.38266 31.2733L1.57129 32.6973H8.59108L7.28833 31.1357Z" fill="white" stroke="#222532"/>
<path fill-rule="evenodd" clip-rule="evenodd" d="M5.46384 34.5744L6.43042 34.6765L6.30817 35.6495C5.95302 38.279 3.20622 41.0533 3.08864 41.172L1.81634 42.4441L1.50121 40.6641C1.12728 38.5709 1.39302 36.9618 2.28904 35.882C3.54249 34.3703 5.46384 34.5744 5.46384 34.5744ZM3.73533 37.0996C3.56835 37.2989 3.44371 37.5529 3.3567 37.8519L3.35671 37.8519C3.5566 37.5505 3.74944 37.2348 3.91406 36.9168C3.85291 36.9714 3.79177 37.0307 3.73533 37.0996Z" fill="white"/>
<path d="M6.43042 34.6765L6.92652 34.7388L6.9901 34.2328L6.48292 34.1792L6.43042 34.6765ZM5.46384 34.5744L5.41103 35.0716L5.41135 35.0716L5.46384 34.5744ZM6.30817 35.6495L6.80369 35.7164L6.80427 35.7118L6.30817 35.6495ZM3.08864 41.172L3.44216 41.5256L3.4438 41.5239L3.08864 41.172ZM1.81634 42.4441L1.324 42.5313L1.49129 43.4761L2.16987 42.7977L1.81634 42.4441ZM1.50121 40.6641L1.99355 40.577L1.99342 40.5762L1.50121 40.6641ZM2.28904 35.882L2.67382 36.2013L2.67394 36.2012L2.28904 35.882ZM3.3567 37.8519L2.87661 37.7122L2.82251 37.8981L2.90774 38.072L3.3567 37.8519ZM3.73533 37.0996L4.11866 37.4206L4.12195 37.4166L3.73533 37.0996ZM3.35671 37.8519L2.90775 38.072L3.29151 38.8549L3.77339 38.1283L3.35671 37.8519ZM3.91406 36.9168L4.3581 37.1467L3.58111 36.5438L3.91406 36.9168ZM6.48292 34.1792L5.51634 34.0772L5.41135 35.0716L6.37792 35.1737L6.48292 34.1792ZM6.80427 35.7118L6.92652 34.7388L5.93432 34.6141L5.81207 35.5871L6.80427 35.7118ZM3.4438 41.5239C3.51087 41.4562 4.24753 40.7118 5.01526 39.6442C5.77355 38.5897 6.60918 37.1564 6.80367 35.7164L5.81267 35.5826C5.65201 36.7721 4.93667 38.0407 4.20338 39.0604C3.47952 40.067 2.78398 40.7691 2.73347 40.8201L3.4438 41.5239ZM2.16987 42.7977L3.44216 41.5256L2.73511 40.8184L1.46282 42.0905L2.16987 42.7977ZM1.00887 40.7513L1.324 42.5313L2.30869 42.3569L1.99355 40.577L1.00887 40.7513ZM1.90426 35.5628C0.874425 36.8038 0.622631 38.5892 1.009 40.7521L1.99342 40.5762C1.63193 38.5527 1.91162 37.1199 2.67382 36.2013L1.90426 35.5628ZM5.46384 34.5744C5.51666 34.0772 5.51645 34.0772 5.51623 34.0772C5.51614 34.0772 5.51591 34.0771 5.51575 34.0771C5.51541 34.0771 5.51505 34.077 5.51466 34.077C5.51387 34.0769 5.51296 34.0768 5.51194 34.0767C5.50989 34.0765 5.50736 34.0763 5.50438 34.076C5.49841 34.0754 5.49058 34.0748 5.48099 34.074C5.4618 34.0725 5.43549 34.0707 5.40271 34.0692C5.3372 34.066 5.24549 34.0637 5.13282 34.0663C4.90812 34.0713 4.59631 34.0956 4.24067 34.1727C3.5301 34.3265 2.62262 34.6964 1.90414 35.5629L2.67394 36.2012C3.20891 35.556 3.88883 35.272 4.4523 35.15C4.73368 35.0891 4.98055 35.0699 5.15528 35.066C5.24232 35.0641 5.3105 35.0659 5.35496 35.068C5.37717 35.0691 5.39336 35.0702 5.40293 35.071C5.40771 35.0713 5.41083 35.0716 5.41221 35.0717C5.4129 35.0718 5.41315 35.0718 5.41296 35.0718C5.41286 35.0718 5.41265 35.0718 5.41233 35.0718C5.41217 35.0717 5.41198 35.0717 5.41176 35.0717C5.41165 35.0717 5.41147 35.0717 5.41142 35.0717C5.41122 35.0716 5.41103 35.0716 5.46384 34.5744ZM3.83679 37.9916C3.9098 37.7407 4.00697 37.5539 4.11864 37.4206L3.35202 36.7785C3.12973 37.0439 2.97763 37.365 2.87661 37.7122L3.83679 37.9916ZM3.80567 37.6318L3.80566 37.6318L2.90774 38.072L2.90775 38.072L3.80567 37.6318ZM3.47003 36.687C3.31612 36.9843 3.13341 37.284 2.94002 37.5756L3.77339 38.1283C3.97979 37.817 4.18277 37.4854 4.3581 37.1467L3.47003 36.687ZM4.12195 37.4166C4.15577 37.3754 4.19615 37.3352 4.24702 37.2898L3.58111 36.5438C3.50967 36.6076 3.42777 36.6861 3.34871 36.7825L4.12195 37.4166Z" fill="#222532"/>
<path fill-rule="evenodd" clip-rule="evenodd" d="M12.7066 29.2912C12.7066 30.2832 11.9047 31.0901 10.9217 31.0901C9.93864 31.0901 9.13907 30.2832 9.13907 29.2912C9.13907 28.2992 9.93864 27.4923 10.9217 27.4923C11.907 27.4923 12.7066 28.2992 12.7066 29.2912ZM11.0204 29.2912C11.0204 29.2366 10.9757 29.1915 10.9217 29.1915C10.8676 29.1915 10.8252 29.2366 10.8252 29.2912C10.8252 29.4004 11.0204 29.4004 11.0204 29.2912Z" fill="white"/>
<path d="M10.9217 31.5901C12.1842 31.5901 13.2066 30.5559 13.2066 29.2912H12.2066C12.2066 30.0105 11.6251 30.5901 10.9217 30.5901V31.5901ZM8.63907 29.2912C8.63907 30.5551 9.65821 31.5901 10.9217 31.5901V30.5901C10.2191 30.5901 9.63907 30.0114 9.63907 29.2912H8.63907ZM10.9217 26.9923C9.65821 26.9923 8.63907 28.0274 8.63907 29.2912H9.63907C9.63907 28.571 10.2191 27.9923 10.9217 27.9923V26.9923ZM13.2066 29.2912C13.2066 28.0269 12.187 26.9923 10.9217 26.9923V27.9923C11.627 27.9923 12.2066 28.5715 12.2066 29.2912H13.2066ZM10.9217 29.6915C10.6953 29.6915 10.5204 29.5084 10.5204 29.2912H11.5204C11.5204 28.9648 11.2562 28.6915 10.9217 28.6915V29.6915ZM11.3252 29.2912C11.3252 29.4925 11.1635 29.6915 10.9217 29.6915V28.6915C10.5716 28.6915 10.3252 28.9807 10.3252 29.2912H11.3252ZM10.5204 29.2912C10.5204 29.1491 10.5923 29.0254 10.691 28.9518C10.7754 28.8888 10.8619 28.8731 10.9228 28.8731C10.9837 28.8731 11.0702 28.8888 11.1546 28.9518C11.2534 29.0254 11.3252 29.1491 11.3252 29.2912H10.3252C10.3252 29.4878 10.4215 29.6525 10.5568 29.7534C10.6779 29.8437 10.8131 29.8731 10.9228 29.8731C11.0325 29.8731 11.1678 29.8437 11.2888 29.7534C11.4242 29.6525 11.5204 29.4878 11.5204 29.2912H10.5204Z" fill="#222532"/>
</svg>
